<svg xmlns="http://www.w3.org/2000/svg" xmlns:xlink="http://www.w3.org/1999/xlink" width="500" zoomAndPan="magnify" viewBox="0 0 375 374.999991" height="500" preserveAspectRatio="xMidYMid meet" version="1.0"><defs><g/><clipPath id="ab4e2873be"><path d="M 107.15625 192.722656 L 141.652344 192.722656 L 141.652344 264.917969 L 107.15625 264.917969 Z M 107.15625 192.722656 " clip-rule="nonzero"/></clipPath><clipPath id="fd5a5d745e"><path d="M 135.242188 109.890625 L 200.476562 109.890625 L 200.476562 171.261719 L 135.242188 171.261719 Z M 135.242188 109.890625 " clip-rule="nonzero"/></clipPath></defs><path fill="#fff4ea" d="M 52.734375 119.871094 C 52.78125 119.84375 52.828125 119.820312 52.878906 119.792969 L 52.875 119.789062 C 52.875 119.789062 52.824219 119.820312 52.734375 119.871094 " fill-opacity="1" fill-rule="nonzero"/><path fill="#efcecb" d="M 181.953125 206.902344 C 181.925781 206.277344 181.910156 205.667969 181.855469 205.042969 C 181.765625 203.796875 181.605469 202.539062 181.378906 201.273438 C 181.148438 200.007812 180.855469 198.734375 180.453125 197.464844 C 179.664062 194.933594 178.5 192.414062 176.941406 190.109375 C 175.382812 187.808594 173.4375 185.757812 171.304688 184.058594 C 169.171875 182.351562 166.863281 180.996094 164.53125 179.894531 C 162.199219 178.796875 159.828125 177.964844 157.476562 177.285156 C 155.125 176.613281 152.785156 176.09375 150.460938 175.6875 C 150.066406 175.621094 149.671875 175.558594 149.273438 175.492188 C 145.039062 174.808594 140.871094 174.4375 136.761719 174.199219 C 135.652344 174.136719 134.550781 174.085938 133.453125 174.039062 C 130.085938 173.902344 126.75 173.84375 123.445312 173.816406 C 117.488281 173.757812 111.617188 173.800781 105.835938 173.738281 C 103.859375 173.714844 101.894531 173.679688 99.9375 173.625 C 99.195312 173.605469 98.453125 173.585938 97.714844 173.558594 C 93.53125 173.410156 89.402344 173.144531 85.382812 172.6875 C 83.371094 172.46875 81.394531 172.175781 79.445312 171.847656 C 77.507812 171.507812 75.601562 171.105469 73.753906 170.632812 C 72.832031 170.390625 71.917969 170.136719 71.027344 169.851562 C 70.136719 169.574219 69.257812 169.277344 68.402344 168.953125 C 67.546875 168.628906 66.710938 168.28125 65.898438 167.910156 C 65.085938 167.539062 64.289062 167.152344 63.523438 166.726562 C 61.996094 165.882812 60.5625 164.945312 59.242188 163.890625 L 58.164062 163 C 57.828125 162.710938 57.46875 162.398438 57.128906 162.09375 C 56.445312 161.472656 55.785156 160.832031 55.144531 160.175781 C 52.585938 157.554688 50.40625 154.617188 48.726562 151.425781 C 47.042969 148.234375 45.875 144.777344 45.3125 141.214844 C 44.761719 137.65625 44.839844 133.976562 45.660156 130.53125 C 46.070312 128.8125 46.664062 127.152344 47.445312 125.640625 C 48.226562 124.132812 49.195312 122.765625 50.332031 121.664062 C 50.886719 121.128906 51.472656 120.65625 52.09375 120.253906 C 47.917969 122.839844 28.730469 136.261719 37.734375 159.859375 C 39.523438 163.46875 41.777344 166.835938 44.359375 169.867188 C 45.167969 170.824219 46.015625 171.738281 46.886719 172.628906 C 47.324219 173.078125 47.757812 173.503906 48.21875 173.945312 L 48.925781 174.609375 L 49.222656 174.882812 L 49.375 175.019531 L 49.449219 175.089844 L 49.578125 175.203125 C 51.566406 176.949219 53.695312 178.507812 55.914062 179.832031 C 58.132812 181.160156 60.425781 182.289062 62.742188 183.226562 C 65.058594 184.179688 67.402344 184.949219 69.742188 185.59375 C 74.421875 186.878906 79.085938 187.644531 83.679688 188.132812 C 88.28125 188.628906 92.8125 188.832031 97.292969 188.925781 C 100.101562 188.976562 102.882812 188.972656 105.652344 188.941406 C 107.773438 188.914062 109.882812 188.875 111.980469 188.824219 C 115.878906 188.726562 119.742188 188.601562 123.570312 188.5 C 125.1875 188.460938 126.796875 188.425781 128.398438 188.394531 C 131.039062 188.347656 133.664062 188.324219 136.257812 188.355469 C 138.339844 188.378906 140.40625 188.4375 142.441406 188.550781 C 142.753906 188.570312 143.066406 188.589844 143.378906 188.609375 C 145.09375 188.714844 146.789062 188.855469 148.453125 189.054688 C 150.417969 189.292969 152.335938 189.597656 154.179688 190.003906 C 156.019531 190.417969 157.789062 190.929688 159.425781 191.5625 C 161.0625 192.199219 162.5625 192.96875 163.894531 193.871094 C 165.222656 194.773438 166.378906 195.816406 167.351562 197.027344 C 168.332031 198.238281 169.136719 199.625 169.769531 201.179688 C 170.09375 201.953125 170.363281 202.773438 170.59375 203.621094 C 170.828125 204.46875 171.023438 205.347656 171.167969 206.257812 C 171.25 206.707031 171.304688 207.175781 171.371094 207.628906 C 171.417969 208.078125 171.476562 208.445312 171.511719 209.035156 L 171.566406 209.75 L 171.605469 210.441406 L 171.628906 211.132812 L 171.636719 211.828125 C 171.632812 213.667969 171.460938 215.507812 171.09375 217.324219 C 170.386719 220.957031 168.90625 224.5 166.820312 227.824219 C 164.738281 231.148438 162.078125 234.25 159.085938 237.105469 C 157.589844 238.535156 156.015625 239.910156 154.378906 241.234375 C 153.5625 241.894531 152.722656 242.535156 151.875 243.171875 C 151.03125 243.8125 150.171875 244.433594 149.300781 245.046875 C 145.8125 247.496094 133.558594 254.695312 133.558594 254.695312 C 133.558594 254.695312 142.679688 252.4375 151.398438 248.636719 C 152.414062 248.195312 153.394531 247.667969 154.382812 247.152344 C 155.367188 246.628906 156.347656 246.09375 157.316406 245.53125 C 158.289062 244.972656 159.25 244.390625 160.207031 243.789062 C 161.15625 243.179688 162.09375 242.542969 163.023438 241.886719 C 166.722656 239.25 170.238281 236.171875 173.25 232.484375 C 174.757812 230.644531 176.128906 228.652344 177.316406 226.519531 C 178.5 224.386719 179.488281 222.109375 180.242188 219.742188 C 180.988281 217.375 181.5 214.917969 181.757812 212.4375 L 181.84375 211.507812 L 181.910156 210.578125 L 181.949219 209.648438 L 181.964844 208.742188 C 181.984375 208.246094 181.964844 207.535156 181.953125 206.902344 " fill-opacity="1" fill-rule="nonzero"/><path fill="#fff4ea" d="M 52.734375 119.871094 C 52.601562 119.945312 52.382812 120.074219 52.09375 120.253906 C 52.300781 120.117188 52.515625 119.992188 52.734375 119.871094 " fill-opacity="1" fill-rule="nonzero"/><g clip-path="url(#ab4e2873be)"><path fill="#b0852a" d="M 133.820312 192.839844 C 132.222656 192.839844 130.476562 192.855469 128.476562 192.890625 C 128.003906 192.898438 127.535156 192.910156 127.066406 192.917969 C 126.511719 194.90625 125.984375 196.898438 125.484375 198.894531 C 124.421875 203.105469 123.507812 207.34375 122.691406 211.59375 C 122.433594 212.957031 122.191406 214.320312 121.953125 215.6875 L 120.585938 211.800781 C 118.359375 205.601562 116.074219 199.421875 113.710938 193.277344 C 113.171875 193.292969 112.628906 193.304688 112.089844 193.320312 C 110.359375 193.363281 108.734375 193.394531 107.15625 193.417969 C 109.40625 200.242188 111.46875 207.132812 113.34375 214.070312 C 113.914062 216.144531 114.460938 218.226562 114.992188 220.3125 C 115.523438 222.398438 116.046875 224.484375 116.554688 226.574219 C 117.058594 228.664062 117.546875 230.757812 118.023438 232.847656 L 118.722656 235.984375 C 118.949219 237.023438 119.179688 238.089844 119.382812 239.09375 L 124.609375 264.917969 L 129.074219 238.386719 L 129.316406 236.9375 L 129.589844 235.429688 C 129.773438 234.425781 129.972656 233.414062 130.175781 232.40625 C 130.585938 230.390625 131.027344 228.371094 131.492188 226.363281 C 132.421875 222.339844 133.457031 218.34375 134.578125 214.375 C 135.691406 210.410156 136.917969 206.480469 138.207031 202.585938 C 139.289062 199.363281 140.4375 196.171875 141.644531 193.011719 C 139.960938 192.929688 138.179688 192.875 136.207031 192.851562 C 135.410156 192.84375 134.617188 192.839844 133.820312 192.839844 " fill-opacity="1" fill-rule="nonzero"/></g><path fill="#b0852a" d="M 100.066406 169.128906 C 101.300781 169.164062 102.5625 169.191406 103.890625 169.214844 C 103.011719 167.207031 102.125 165.203125 101.214844 163.210938 C 99.398438 159.238281 97.519531 155.289062 95.535156 151.382812 C 93.554688 147.476562 91.480469 143.601562 89.25 139.796875 C 87.027344 135.988281 84.644531 132.25 82.003906 128.628906 C 79.355469 125.023438 76.453125 121.515625 73 118.363281 C 71.261719 116.792969 69.394531 115.308594 67.308594 114.019531 C 67.054688 113.851562 66.785156 113.703125 66.519531 113.542969 C 66.382812 113.464844 66.261719 113.390625 66.113281 113.308594 L 65.675781 113.074219 L 65.234375 112.839844 L 64.507812 112.472656 L 64.015625 112.246094 C 62.828125 111.703125 61.5625 111.257812 60.238281 110.9375 C 58.910156 110.625 57.523438 110.4375 56.113281 110.421875 C 54.703125 110.40625 53.273438 110.554688 51.882812 110.875 C 49.09375 111.503906 46.496094 112.8125 44.316406 114.492188 C 42.125 116.175781 40.316406 118.203125 38.835938 120.382812 C 37.359375 122.566406 36.207031 124.90625 35.328125 127.316406 C 33.570312 132.148438 32.894531 137.261719 33.125 142.316406 C 33.347656 147.378906 34.519531 152.386719 36.457031 157.0625 C 36.851562 158.007812 37.277344 158.941406 37.734375 159.859375 C 28.730469 136.261719 47.917969 122.839844 52.09375 120.253906 C 52.382812 120.074219 52.601562 119.945312 52.730469 119.871094 C 52.824219 119.820312 52.875 119.789062 52.875 119.789062 L 52.878906 119.792969 C 53.292969 119.574219 53.714844 119.382812 54.152344 119.226562 C 55.550781 118.730469 57.074219 118.570312 58.679688 118.78125 C 59.476562 118.890625 60.296875 119.078125 61.113281 119.359375 L 61.339844 119.4375 C 61.378906 119.453125 61.277344 119.40625 61.367188 119.445312 L 62.121094 119.746094 L 62.410156 119.871094 L 62.703125 119.996094 C 62.796875 120.035156 62.910156 120.089844 63.015625 120.140625 C 63.226562 120.242188 63.4375 120.335938 63.648438 120.445312 C 65.335938 121.289062 66.972656 122.386719 68.550781 123.601562 C 70.121094 124.835938 71.640625 126.199219 73.082031 127.664062 C 73.804688 128.398438 74.511719 129.15625 75.207031 129.925781 C 75.894531 130.707031 76.574219 131.496094 77.238281 132.304688 C 78.570312 133.921875 79.828125 135.609375 81.054688 137.328125 C 82.277344 139.054688 83.445312 140.824219 84.582031 142.621094 C 89.097656 149.832031 92.960938 157.507812 96.441406 165.351562 C 96.988281 166.585938 97.523438 167.824219 98.050781 169.070312 C 98.65625 169.089844 99.257812 169.109375 99.859375 169.125 L 100.066406 169.128906 " fill-opacity="1" fill-rule="nonzero"/><g clip-path="url(#fd5a5d745e)"><path fill="#b0852a" d="M 149.992188 171.054688 L 150.128906 171.074219 C 150.332031 171.109375 150.53125 171.144531 150.734375 171.175781 C 156.152344 159.453125 172.777344 126.613281 200.488281 109.890625 C 179.871094 112.871094 162.40625 118.691406 138.933594 161.871094 C 137.5625 164.390625 136.375 166.992188 135.265625 169.621094 C 135.855469 169.648438 136.441406 169.675781 137.011719 169.710938 C 141.96875 169.996094 146.09375 170.425781 149.992188 171.054688 " fill-opacity="1" fill-rule="nonzero"/></g><g fill="#ffffff" fill-opacity="1"><g transform="translate(192.806783, 220.801432)"><g><path d="M 13.46875 -23.203125 L 22.84375 0 L 17.15625 0 L 15.4375 -4.640625 L 6.609375 -4.640625 L 4.890625 0 L -0.78125 0 L 8.578125 -23.203125 Z M 13.640625 -9.28125 L 11.046875 -16.03125 L 11 -16.03125 L 8.40625 -9.28125 Z M 13.640625 -9.28125 "/></g></g></g><g fill="#ffffff" fill-opacity="1"><g transform="translate(217.675414, 220.801432)"><g><path d="M 1.6875 -23.203125 L 9.984375 -23.203125 C 12.210938 -23.203125 14.03125 -22.601562 15.4375 -21.40625 C 16.84375 -20.21875 17.546875 -18.519531 17.546875 -16.3125 C 17.546875 -14.601562 17.117188 -13.171875 16.265625 -12.015625 C 15.410156 -10.867188 14.253906 -10.0625 12.796875 -9.59375 L 20.78125 0 L 14.0625 0 L 6.96875 -9.171875 L 6.96875 0 L 1.6875 0 Z M 6.96875 -12.90625 L 7.59375 -12.90625 C 8.082031 -12.90625 8.492188 -12.914062 8.828125 -12.9375 C 9.171875 -12.957031 9.554688 -13.019531 9.984375 -13.125 C 10.410156 -13.238281 10.753906 -13.398438 11.015625 -13.609375 C 11.285156 -13.816406 11.515625 -14.117188 11.703125 -14.515625 C 11.890625 -14.910156 11.984375 -15.390625 11.984375 -15.953125 C 11.984375 -16.515625 11.890625 -16.988281 11.703125 -17.375 C 11.515625 -17.769531 11.285156 -18.070312 11.015625 -18.28125 C 10.753906 -18.488281 10.410156 -18.644531 9.984375 -18.75 C 9.554688 -18.863281 9.171875 -18.929688 8.828125 -18.953125 C 8.492188 -18.972656 8.082031 -18.984375 7.59375 -18.984375 L 6.96875 -18.984375 Z M 6.96875 -12.90625 "/></g></g></g><g fill="#ffffff" fill-opacity="1"><g transform="translate(240.63107, 220.801432)"><g><path d="M 0.21875 -18.5625 L 0.21875 -23.203125 L 16.53125 -23.203125 L 16.53125 -18.5625 L 11.03125 -18.5625 L 11.03125 0 L 5.734375 0 L 5.734375 -18.5625 Z M 0.21875 -18.5625 "/></g></g></g><g fill="#ffffff" fill-opacity="1"><g transform="translate(260.210895, 220.801432)"><g><path d="M 0.640625 -11.609375 C 0.640625 -14.972656 1.785156 -17.816406 4.078125 -20.140625 C 6.367188 -22.460938 9.125 -23.625 12.34375 -23.625 C 15.59375 -23.625 18.347656 -22.460938 20.609375 -20.140625 C 22.878906 -17.828125 24.015625 -14.984375 24.015625 -11.609375 C 24.015625 -8.222656 22.898438 -5.367188 20.671875 -3.046875 C 18.441406 -0.734375 15.664062 0.421875 12.34375 0.421875 C 8.945312 0.421875 6.144531 -0.722656 3.9375 -3.015625 C 1.738281 -5.316406 0.640625 -8.179688 0.640625 -11.609375 Z M 6.359375 -11.609375 C 6.359375 -10.390625 6.546875 -9.28125 6.921875 -8.28125 C 7.296875 -7.28125 7.953125 -6.429688 8.890625 -5.734375 C 9.828125 -5.046875 10.976562 -4.703125 12.34375 -4.703125 C 14.3125 -4.703125 15.796875 -5.375 16.796875 -6.71875 C 17.804688 -8.070312 18.3125 -9.703125 18.3125 -11.609375 C 18.3125 -13.503906 17.800781 -15.128906 16.78125 -16.484375 C 15.757812 -17.847656 14.28125 -18.53125 12.34375 -18.53125 C 10.4375 -18.53125 8.960938 -17.847656 7.921875 -16.484375 C 6.878906 -15.128906 6.359375 -13.503906 6.359375 -11.609375 Z M 6.359375 -11.609375 "/></g></g></g><g fill="#ffffff" fill-opacity="1"><g transform="translate(287.695793, 220.801432)"><g><path d="M 19.515625 -23.203125 L 19.515625 -8.234375 C 19.515625 -5.390625 18.742188 -3.234375 17.203125 -1.765625 C 15.671875 -0.304688 13.421875 0.421875 10.453125 0.421875 C 7.492188 0.421875 5.242188 -0.304688 3.703125 -1.765625 C 2.171875 -3.234375 1.40625 -5.390625 1.40625 -8.234375 L 1.40625 -23.203125 L 6.6875 -23.203125 L 6.6875 -9.78125 C 6.6875 -7.90625 6.984375 -6.601562 7.578125 -5.875 C 8.171875 -5.144531 9.128906 -4.78125 10.453125 -4.78125 C 11.785156 -4.78125 12.75 -5.144531 13.34375 -5.875 C 13.9375 -6.601562 14.234375 -7.90625 14.234375 -9.78125 L 14.234375 -23.203125 Z M 19.515625 -23.203125 "/></g></g></g><g fill="#ffffff" fill-opacity="1"><g transform="translate(311.439146, 220.801432)"><g><path d="M 6.96875 -9.3125 L 6.96875 0 L 1.6875 0 L 1.6875 -23.203125 L 6.96875 -23.203125 L 6.96875 -13.953125 L 14.453125 -13.953125 L 14.453125 -23.203125 L 19.75 -23.203125 L 19.75 0 L 14.453125 0 L 14.453125 -9.3125 Z M 6.96875 -9.3125 "/></g></g></g><g fill="#ffffff" fill-opacity="1"><g transform="translate(335.688865, 220.801432)"><g><path d="M 6.96875 -23.203125 L 6.96875 0 L 1.6875 0 L 1.6875 -23.203125 Z M 6.96875 -23.203125 "/></g></g></g></svg>