<svg xmlns="http://www.w3.org/2000/svg" xmlns:xlink="http://www.w3.org/1999/xlink" width="500" zoomAndPan="magnify" viewBox="0 0 375 374.999991" height="500" preserveAspectRatio="xMidYMid meet" version="1.0"><path fill="#e1e1ef" d="M 368.257812 186.214844 C 368.257812 189.160156 368.183594 192.097656 368.042969 195.039062 C 367.898438 197.976562 367.679688 200.910156 367.390625 203.839844 C 367.101562 206.765625 366.742188 209.6875 366.3125 212.597656 C 365.878906 215.507812 365.378906 218.40625 364.804688 221.292969 C 364.230469 224.179688 363.585938 227.046875 362.871094 229.902344 C 362.15625 232.757812 361.371094 235.589844 360.515625 238.40625 C 359.660156 241.222656 358.738281 244.015625 357.746094 246.785156 C 356.757812 249.558594 355.699219 252.300781 354.570312 255.019531 C 353.445312 257.738281 352.253906 260.429688 350.996094 263.085938 C 349.738281 265.746094 348.414062 268.375 347.027344 270.96875 C 345.640625 273.566406 344.191406 276.125 342.679688 278.648438 C 341.164062 281.171875 339.589844 283.65625 337.957031 286.105469 C 336.320312 288.550781 334.628906 290.957031 332.875 293.320312 C 331.121094 295.683594 329.3125 298 327.445312 300.277344 C 325.578125 302.550781 323.65625 304.777344 321.683594 306.957031 C 319.707031 309.136719 317.675781 311.269531 315.597656 313.351562 C 313.515625 315.429688 311.386719 317.457031 309.207031 319.433594 C 307.027344 321.410156 304.796875 323.332031 302.523438 325.199219 C 300.25 327.066406 297.929688 328.875 295.566406 330.628906 C 293.203125 332.378906 290.796875 334.074219 288.351562 335.710938 C 285.90625 337.34375 283.417969 338.917969 280.894531 340.429688 C 278.371094 341.941406 275.8125 343.394531 273.21875 344.78125 C 270.621094 346.167969 267.996094 347.488281 265.335938 348.746094 C 262.675781 350.007812 259.984375 351.199219 257.265625 352.324219 C 254.550781 353.449219 251.804688 354.507812 249.035156 355.5 C 246.261719 356.492188 243.46875 357.414062 240.65625 358.269531 C 237.839844 359.121094 235.003906 359.90625 232.148438 360.621094 C 229.296875 361.335938 226.425781 361.980469 223.539062 362.554688 C 220.652344 363.128906 217.753906 363.632812 214.84375 364.0625 C 211.933594 364.496094 209.015625 364.855469 206.085938 365.144531 C 203.15625 365.433594 200.222656 365.648438 197.285156 365.792969 C 194.347656 365.9375 191.40625 366.011719 188.464844 366.011719 C 185.519531 366.011719 182.578125 365.9375 179.640625 365.792969 C 176.703125 365.648438 173.769531 365.433594 170.839844 365.144531 C 167.910156 364.855469 164.992188 364.496094 162.082031 364.0625 C 159.171875 363.632812 156.273438 363.128906 153.386719 362.554688 C 150.5 361.980469 147.632812 361.335938 144.777344 360.621094 C 141.921875 359.90625 139.085938 359.121094 136.273438 358.269531 C 133.457031 357.414062 130.664062 356.492188 127.890625 355.5 C 125.121094 354.507812 122.378906 353.449219 119.660156 352.324219 C 116.941406 351.199219 114.25 350.007812 111.589844 348.746094 C 108.929688 347.488281 106.304688 346.167969 103.707031 344.78125 C 101.113281 343.394531 98.554688 341.941406 96.03125 340.429688 C 93.507812 338.917969 91.019531 337.34375 88.574219 335.710938 C 86.128906 334.074219 83.722656 332.378906 81.359375 330.628906 C 78.996094 328.875 76.675781 327.066406 74.402344 325.199219 C 72.128906 323.332031 69.902344 321.410156 67.71875 319.433594 C 65.539062 317.457031 63.410156 315.429688 61.328125 313.351562 C 59.25 311.269531 57.21875 309.136719 55.246094 306.957031 C 53.269531 304.777344 51.347656 302.550781 49.480469 300.277344 C 47.613281 298 45.804688 295.683594 44.050781 293.320312 C 42.296875 290.957031 40.605469 288.550781 38.96875 286.105469 C 37.335938 283.65625 35.761719 281.171875 34.25 278.648438 C 32.734375 276.125 31.285156 273.566406 29.898438 270.96875 C 28.511719 268.375 27.1875 265.746094 25.929688 263.085938 C 24.671875 260.429688 23.480469 257.738281 22.355469 255.019531 C 21.230469 252.300781 20.171875 249.558594 19.179688 246.785156 C 18.1875 244.015625 17.265625 241.222656 16.410156 238.40625 C 15.554688 235.589844 14.773438 232.757812 14.058594 229.902344 C 13.34375 227.046875 12.699219 224.179688 12.125 221.292969 C 11.550781 218.40625 11.046875 215.507812 10.613281 212.597656 C 10.183594 209.6875 9.824219 206.765625 9.535156 203.839844 C 9.246094 200.910156 9.03125 197.976562 8.886719 195.039062 C 8.742188 192.097656 8.667969 189.160156 8.667969 186.214844 C 8.667969 183.273438 8.742188 180.332031 8.886719 177.394531 C 9.03125 174.453125 9.246094 171.519531 9.535156 168.59375 C 9.824219 165.664062 10.183594 162.746094 10.613281 159.835938 C 11.046875 156.921875 11.550781 154.027344 12.125 151.140625 C 12.699219 148.253906 13.34375 145.382812 14.058594 142.527344 C 14.773438 139.675781 15.554688 136.839844 16.410156 134.023438 C 17.265625 131.207031 18.1875 128.414062 19.179688 125.644531 C 20.171875 122.875 21.230469 120.128906 22.355469 117.410156 C 23.480469 114.691406 24.671875 112.003906 25.929688 109.34375 C 27.1875 106.683594 28.511719 104.054688 29.898438 101.460938 C 31.285156 98.867188 32.734375 96.308594 34.25 93.78125 C 35.761719 91.257812 37.335938 88.773438 38.96875 86.328125 C 40.605469 83.878906 42.296875 81.476562 44.050781 79.113281 C 45.804688 76.75 47.613281 74.429688 49.480469 72.15625 C 51.347656 69.878906 53.269531 67.652344 55.246094 65.472656 C 57.21875 63.292969 59.25 61.164062 61.328125 59.082031 C 63.410156 57 65.539062 54.972656 67.71875 52.996094 C 69.902344 51.019531 72.128906 49.097656 74.402344 47.234375 C 76.675781 45.367188 78.996094 43.554688 81.359375 41.804688 C 83.722656 40.050781 86.128906 38.355469 88.574219 36.722656 C 91.019531 35.085938 93.507812 33.511719 96.03125 32 C 98.554688 30.488281 101.113281 29.039062 103.707031 27.652344 C 106.304688 26.265625 108.929688 24.941406 111.589844 23.683594 C 114.25 22.425781 116.941406 21.234375 119.660156 20.105469 C 122.378906 18.980469 125.121094 17.921875 127.890625 16.929688 C 130.664062 15.941406 133.457031 15.015625 136.273438 14.164062 C 139.085938 13.308594 141.921875 12.523438 144.777344 11.808594 C 147.632812 11.09375 150.5 10.449219 153.386719 9.875 C 156.273438 9.300781 159.171875 8.800781 162.082031 8.367188 C 164.992188 7.933594 167.910156 7.574219 170.839844 7.285156 C 173.769531 7 176.703125 6.78125 179.640625 6.636719 C 182.578125 6.492188 185.519531 6.421875 188.464844 6.421875 C 191.40625 6.421875 194.347656 6.492188 197.285156 6.636719 C 200.222656 6.78125 203.15625 7 206.085938 7.285156 C 209.015625 7.574219 211.933594 7.933594 214.84375 8.367188 C 217.753906 8.800781 220.652344 9.300781 223.539062 9.875 C 226.425781 10.449219 229.296875 11.09375 232.148438 11.808594 C 235.003906 12.523438 237.839844 13.308594 240.65625 14.164062 C 243.46875 15.015625 246.261719 15.941406 249.035156 16.929688 C 251.804688 17.921875 254.550781 18.980469 257.265625 20.105469 C 259.984375 21.234375 262.675781 22.425781 265.335938 23.683594 C 267.996094 24.941406 270.621094 26.265625 273.21875 27.652344 C 275.8125 29.039062 278.371094 30.488281 280.894531 32 C 283.417969 33.511719 285.90625 35.085938 288.351562 36.722656 C 290.796875 38.355469 293.203125 40.050781 295.566406 41.804688 C 297.929688 43.554688 300.25 45.367188 302.523438 47.234375 C 304.796875 49.097656 307.027344 51.019531 309.207031 52.996094 C 311.386719 54.972656 313.515625 57 315.597656 59.082031 C 317.675781 61.164062 319.707031 63.292969 321.683594 65.472656 C 323.65625 67.652344 325.578125 69.878906 327.445312 72.15625 C 329.3125 74.429688 331.121094 76.75 332.875 79.113281 C 334.628906 81.476562 336.320312 83.878906 337.957031 86.328125 C 339.589844 88.773438 341.164062 91.257812 342.679688 93.78125 C 344.191406 96.308594 345.640625 98.867188 347.027344 101.460938 C 348.414062 104.054688 349.738281 106.683594 350.996094 109.34375 C 352.253906 112.003906 353.445312 114.691406 354.570312 117.410156 C 355.699219 120.128906 356.757812 122.875 357.746094 125.644531 C 358.738281 128.414062 359.660156 131.207031 360.515625 134.023438 C 361.371094 136.839844 362.15625 139.675781 362.871094 142.527344 C 363.585938 145.382812 364.230469 148.253906 364.804688 151.140625 C 365.378906 154.027344 365.878906 156.921875 366.3125 159.835938 C 366.742188 162.746094 367.101562 165.664062 367.390625 168.59375 C 367.679688 171.519531 367.898438 174.453125 368.042969 177.394531 C 368.183594 180.332031 368.257812 183.273438 368.257812 186.214844 Z M 368.257812 186.214844 " fill-opacity="1" fill-rule="nonzero"/><path fill="#9e9ecc" d="M 367.292969 57.984375 L 367.292969 186.410156 L 357.277344 200.472656 L 337.179688 211.324219 L 92.785156 248.628906 L 92.207031 245.484375 L 59.332031 59.589844 L 59.074219 57.984375 Z M 367.292969 57.984375 " fill-opacity="1" fill-rule="nonzero"/><path fill="#e4e0fa" d="M 120.976562 241.054688 L 92.207031 245.484375 L 59.332031 59.589844 L 88.871094 59.589844 Z M 120.976562 241.054688 " fill-opacity="1" fill-rule="nonzero"/><path fill="#c9c1f5" d="M 335.574219 59.589844 L 335.574219 177.933594 C 335.570312 181.203125 335.070312 184.394531 334.074219 187.503906 C 333.074219 190.617188 331.628906 193.507812 329.730469 196.167969 C 326.898438 200.066406 323.367188 203.171875 319.136719 205.480469 L 305.457031 212.863281 L 120.976562 241.054688 L 88.871094 59.589844 Z M 335.574219 59.589844 " fill-opacity="1" fill-rule="nonzero"/><path fill="#f47e86" d="M 264.875 57.792969 C 264.894531 59.492188 264.824219 61.191406 264.675781 62.890625 C 264.523438 64.585938 264.292969 66.269531 263.976562 67.945312 C 263.660156 69.617188 263.261719 71.269531 262.78125 72.902344 C 262.304688 74.539062 261.746094 76.144531 261.105469 77.722656 C 260.46875 79.304688 259.757812 80.847656 258.96875 82.355469 C 258.179688 83.863281 257.316406 85.332031 256.382812 86.753906 C 255.449219 88.179688 254.449219 89.554688 253.378906 90.878906 C 252.308594 92.203125 251.179688 93.472656 249.984375 94.6875 C 248.789062 95.902344 247.539062 97.054688 246.230469 98.144531 C 244.921875 99.234375 243.566406 100.257812 242.15625 101.21875 C 240.75 102.175781 239.296875 103.058594 237.800781 103.875 C 236.304688 104.6875 234.773438 105.425781 233.207031 106.089844 C 231.636719 106.753906 230.039062 107.339844 228.414062 107.84375 C 226.789062 108.351562 225.140625 108.773438 223.472656 109.117188 C 221.804688 109.464844 220.125 109.722656 218.433594 109.902344 C 216.738281 110.082031 215.039062 110.175781 213.339844 110.1875 C 211.636719 110.199219 209.9375 110.125 208.242188 109.96875 C 206.542969 109.8125 204.859375 109.574219 203.1875 109.253906 C 201.515625 108.929688 199.863281 108.527344 198.230469 108.042969 C 196.601562 107.558594 194.996094 106.996094 193.417969 106.351562 C 191.839844 105.710938 190.300781 104.992188 188.792969 104.199219 C 187.285156 103.402344 185.824219 102.539062 184.402344 101.597656 C 182.980469 100.660156 181.609375 99.65625 180.289062 98.582031 C 178.964844 97.507812 177.699219 96.371094 176.492188 95.175781 C 175.28125 93.976562 174.132812 92.722656 173.046875 91.410156 C 171.960938 90.097656 170.941406 88.738281 169.988281 87.328125 C 169.035156 85.914062 168.152344 84.460938 167.34375 82.960938 C 166.535156 81.464844 165.800781 79.929688 165.144531 78.359375 C 164.484375 76.789062 163.90625 75.1875 163.40625 73.5625 C 162.90625 71.933594 162.484375 70.285156 162.144531 68.617188 C 161.808594 66.949219 161.550781 65.265625 161.378906 63.574219 C 161.207031 61.878906 161.117188 60.179688 161.113281 58.476562 C 161.105469 56.773438 161.183594 55.074219 161.34375 53.378906 C 161.507812 51.683594 161.75 50.003906 162.078125 48.332031 C 162.40625 46.660156 162.816406 45.007812 163.304688 43.378906 C 163.796875 41.746094 164.363281 40.144531 165.011719 38.570312 C 165.660156 36.996094 166.382812 35.457031 167.183594 33.953125 C 167.980469 32.449219 168.851562 30.988281 169.796875 29.570312 C 170.738281 28.152344 171.75 26.785156 172.828125 25.464844 C 173.90625 24.148438 175.042969 22.882812 176.246094 21.679688 C 177.449219 20.472656 178.707031 19.328125 180.023438 18.246094 C 181.335938 17.164062 182.699219 16.148438 184.117188 15.199219 C 185.53125 14.253906 186.988281 13.378906 188.488281 12.574219 C 189.988281 11.769531 191.527344 11.039062 193.097656 10.386719 C 194.671875 9.734375 196.273438 9.160156 197.902344 8.664062 C 199.53125 8.167969 201.179688 7.753906 202.851562 7.421875 C 204.519531 7.089844 206.203125 6.839844 207.894531 6.671875 C 209.589844 6.503906 211.289062 6.421875 212.992188 6.421875 C 214.679688 6.417969 216.367188 6.5 218.046875 6.660156 C 219.730469 6.824219 221.398438 7.070312 223.054688 7.394531 C 224.714844 7.71875 226.351562 8.125 227.96875 8.613281 C 229.585938 9.097656 231.175781 9.664062 232.738281 10.304688 C 234.300781 10.945312 235.828125 11.660156 237.320312 12.453125 C 238.8125 13.242188 240.265625 14.105469 241.671875 15.039062 C 243.082031 15.972656 244.441406 16.96875 245.75 18.035156 C 247.0625 19.101562 248.316406 20.226562 249.515625 21.417969 C 250.71875 22.605469 251.855469 23.847656 252.9375 25.148438 C 254.015625 26.449219 255.027344 27.796875 255.972656 29.199219 C 256.921875 30.597656 257.796875 32.039062 258.601562 33.523438 C 259.410156 35.007812 260.140625 36.527344 260.796875 38.082031 C 261.453125 39.640625 262.035156 41.222656 262.535156 42.835938 C 263.039062 44.449219 263.460938 46.082031 263.800781 47.738281 C 264.144531 49.390625 264.40625 51.058594 264.585938 52.738281 C 264.765625 54.417969 264.859375 56.101562 264.875 57.792969 Z M 264.875 57.792969 " fill-opacity="1" fill-rule="nonzero"/><path fill="#ffb4b4" d="M 246.253906 76.542969 C 246.253906 83.0625 245.054688 89.355469 242.660156 95.417969 C 241.75 97.953125 240.636719 100.394531 239.320312 102.738281 C 238.09375 103.453125 236.84375 104.117188 235.566406 104.726562 C 234.289062 105.339844 232.988281 105.898438 231.664062 106.402344 C 230.339844 106.90625 229 107.355469 227.636719 107.75 C 226.277344 108.144531 224.902344 108.484375 223.515625 108.765625 C 222.128906 109.050781 220.730469 109.273438 219.324219 109.441406 C 217.917969 109.609375 216.503906 109.71875 215.089844 109.773438 C 213.675781 109.824219 212.257812 109.820312 210.84375 109.753906 C 209.429688 109.691406 208.019531 109.570312 206.613281 109.390625 C 205.207031 109.210938 203.8125 108.976562 202.425781 108.683594 C 201.039062 108.386719 199.667969 108.039062 198.3125 107.632812 C 196.953125 107.226562 195.617188 106.765625 194.296875 106.25 C 192.976562 105.734375 191.679688 105.167969 190.40625 104.546875 C 189.132812 103.921875 187.890625 103.25 186.671875 102.527344 C 185.453125 101.804688 184.265625 101.03125 183.113281 100.210938 C 181.957031 99.390625 180.839844 98.523438 179.753906 97.609375 C 178.671875 96.699219 177.625 95.742188 176.621094 94.746094 C 175.617188 93.746094 174.652344 92.707031 173.734375 91.632812 C 172.8125 90.554688 171.9375 89.441406 171.109375 88.292969 C 170.28125 87.144531 169.5 85.964844 168.765625 84.75 C 168.035156 83.539062 167.351562 82.296875 166.722656 81.03125 C 166.089844 79.761719 165.511719 78.46875 164.988281 77.152344 C 164.460938 75.839844 163.992188 74.503906 163.574219 73.148438 C 163.160156 71.792969 162.800781 70.425781 162.496094 69.042969 C 162.195312 67.65625 161.945312 66.265625 161.757812 64.859375 C 161.570312 63.457031 161.4375 62.046875 161.363281 60.632812 C 161.289062 59.21875 161.273438 57.800781 161.316406 56.386719 C 161.355469 54.96875 161.457031 53.558594 161.613281 52.152344 C 161.773438 50.742188 161.988281 49.34375 162.257812 47.953125 C 162.53125 46.5625 162.859375 45.1875 163.246094 43.824219 C 163.628906 42.460938 164.070312 41.113281 164.566406 39.789062 C 165.0625 38.460938 165.609375 37.15625 166.210938 35.871094 C 166.8125 34.589844 167.46875 33.335938 168.171875 32.105469 C 170.542969 30.625 173.027344 29.363281 175.621094 28.316406 C 181.800781 25.835938 188.222656 24.617188 194.882812 24.65625 C 196.574219 24.675781 198.257812 24.773438 199.933594 24.953125 C 201.613281 25.136719 203.28125 25.398438 204.933594 25.742188 C 206.585938 26.085938 208.21875 26.507812 209.832031 27.011719 C 211.441406 27.515625 213.027344 28.09375 214.582031 28.753906 C 216.136719 29.410156 217.65625 30.140625 219.140625 30.949219 C 220.621094 31.753906 222.0625 32.632812 223.460938 33.578125 C 224.859375 34.523438 226.207031 35.539062 227.507812 36.617188 C 228.808594 37.695312 230.050781 38.832031 231.238281 40.035156 C 232.425781 41.234375 233.554688 42.488281 234.621094 43.796875 C 235.683594 45.109375 236.683594 46.464844 237.617188 47.875 C 238.550781 49.28125 239.410156 50.730469 240.203125 52.222656 C 240.996094 53.714844 241.710938 55.242188 242.355469 56.804688 C 242.996094 58.363281 243.5625 59.953125 244.046875 61.570312 C 244.535156 63.1875 244.941406 64.824219 245.269531 66.480469 C 245.597656 68.136719 245.84375 69.804688 246.007812 71.488281 C 246.171875 73.167969 246.253906 74.851562 246.253906 76.542969 Z M 246.253906 76.542969 " fill-opacity="1" fill-rule="nonzero"/><path fill="#ff9595" d="M 246.253906 76.542969 C 246.253906 83.0625 245.054688 89.355469 242.660156 95.417969 C 236.480469 97.914062 230.058594 99.132812 223.394531 99.078125 C 221.695312 99.078125 220 98.996094 218.308594 98.828125 C 216.617188 98.664062 214.9375 98.414062 213.273438 98.082031 C 211.605469 97.75 209.960938 97.339844 208.332031 96.84375 C 206.707031 96.351562 205.109375 95.78125 203.539062 95.128906 C 201.96875 94.480469 200.433594 93.753906 198.9375 92.953125 C 197.4375 92.152344 195.984375 91.28125 194.570312 90.335938 C 193.15625 89.390625 191.792969 88.378906 190.480469 87.300781 C 189.167969 86.222656 187.910156 85.085938 186.707031 83.882812 C 185.507812 82.683594 184.367188 81.425781 183.289062 80.109375 C 182.210938 78.796875 181.199219 77.433594 180.253906 76.019531 C 179.3125 74.609375 178.4375 73.152344 177.636719 71.652344 C 176.835938 70.15625 176.109375 68.621094 175.460938 67.050781 C 174.808594 65.480469 174.238281 63.882812 173.746094 62.257812 C 173.25 60.632812 172.839844 58.984375 172.507812 57.316406 C 172.175781 55.652344 171.925781 53.972656 171.761719 52.28125 C 171.59375 50.589844 171.511719 48.894531 171.511719 47.195312 C 171.675781 40.640625 173.046875 34.347656 175.621094 28.316406 C 181.800781 25.835938 188.222656 24.617188 194.882812 24.65625 C 196.574219 24.675781 198.257812 24.773438 199.933594 24.953125 C 201.613281 25.136719 203.28125 25.398438 204.933594 25.742188 C 206.585938 26.085938 208.21875 26.507812 209.832031 27.011719 C 211.441406 27.515625 213.027344 28.09375 214.582031 28.753906 C 216.136719 29.410156 217.65625 30.140625 219.140625 30.949219 C 220.621094 31.753906 222.0625 32.632812 223.460938 33.578125 C 224.859375 34.523438 226.207031 35.539062 227.507812 36.617188 C 228.808594 37.695312 230.050781 38.832031 231.238281 40.035156 C 232.425781 41.234375 233.554688 42.488281 234.621094 43.796875 C 235.683594 45.109375 236.683594 46.464844 237.617188 47.875 C 238.550781 49.28125 239.410156 50.730469 240.203125 52.222656 C 240.996094 53.714844 241.710938 55.242188 242.355469 56.804688 C 242.996094 58.363281 243.5625 59.953125 244.046875 61.570312 C 244.535156 63.1875 244.941406 64.824219 245.269531 66.480469 C 245.597656 68.136719 245.84375 69.804688 246.007812 71.488281 C 246.171875 73.167969 246.253906 74.851562 246.253906 76.542969 Z M 246.253906 76.542969 " fill-opacity="1" fill-rule="nonzero"/><path fill="#9e9ecc" d="M 154.171875 342.957031 C 154.175781 344.253906 154.066406 345.539062 153.851562 346.816406 C 153.636719 348.09375 153.320312 349.34375 152.894531 350.566406 C 152.472656 351.792969 151.949219 352.972656 151.328125 354.109375 C 150.707031 355.246094 149.996094 356.324219 149.195312 357.339844 C 148.394531 358.359375 147.515625 359.300781 146.554688 360.171875 C 145.597656 361.042969 144.574219 361.828125 143.484375 362.527344 C 142.394531 363.226562 141.253906 363.832031 140.0625 364.339844 C 138.871094 364.851562 137.644531 365.257812 136.386719 365.5625 C 134.5 365.949219 132.597656 366.101562 130.671875 366.011719 C 129.90625 366.011719 129.140625 365.972656 128.378906 365.898438 C 127.617188 365.824219 126.859375 365.710938 126.109375 365.5625 C 125.359375 365.410156 124.617188 365.226562 123.882812 365.003906 C 123.152344 364.78125 122.429688 364.523438 121.722656 364.230469 C 121.015625 363.9375 120.324219 363.609375 119.648438 363.246094 C 118.972656 362.886719 118.316406 362.492188 117.679688 362.066406 C 117.042969 361.640625 116.429688 361.183594 115.835938 360.699219 C 115.246094 360.210938 114.679688 359.699219 114.136719 359.15625 C 113.597656 358.613281 113.082031 358.046875 112.597656 357.457031 C 112.109375 356.863281 111.65625 356.25 111.230469 355.609375 C 110.804688 354.972656 110.414062 354.316406 110.050781 353.640625 C 109.691406 352.964844 109.363281 352.273438 109.070312 351.566406 C 108.777344 350.859375 108.523438 350.136719 108.300781 349.40625 C 108.078125 348.671875 107.894531 347.929688 107.746094 347.179688 C 107.59375 346.425781 107.484375 345.671875 107.410156 344.90625 C 107.335938 344.144531 107.296875 343.382812 107.300781 342.617188 C 107.300781 341.847656 107.335938 341.085938 107.414062 340.324219 C 107.488281 339.5625 107.601562 338.804688 107.753906 338.054688 C 107.902344 337.300781 108.089844 336.558594 108.3125 335.828125 C 108.535156 335.09375 108.792969 334.375 109.089844 333.667969 C 109.382812 332.960938 109.710938 332.269531 110.070312 331.59375 C 110.433594 330.917969 110.828125 330.261719 111.253906 329.625 C 111.679688 328.992188 112.136719 328.375 112.625 327.785156 C 113.109375 327.195312 113.625 326.628906 114.167969 326.085938 C 114.710938 325.546875 115.277344 325.03125 115.871094 324.546875 C 116.464844 324.0625 117.078125 323.609375 117.714844 323.183594 C 118.351562 322.757812 119.011719 322.367188 119.6875 322.007812 C 120.363281 321.648438 121.054688 321.320312 121.761719 321.027344 C 122.46875 320.738281 123.191406 320.480469 123.925781 320.257812 C 124.65625 320.039062 125.398438 319.851562 126.152344 319.703125 C 126.902344 319.558594 127.660156 319.445312 128.421875 319.371094 C 129.183594 319.296875 129.949219 319.261719 130.714844 319.261719 C 131.480469 319.265625 132.246094 319.304688 133.007812 319.378906 C 133.769531 319.457031 134.527344 319.570312 135.277344 319.722656 C 136.027344 319.871094 136.769531 320.058594 137.5 320.285156 C 138.234375 320.507812 138.953125 320.765625 139.660156 321.0625 C 140.367188 321.355469 141.058594 321.683594 141.734375 322.046875 C 142.410156 322.410156 143.0625 322.804688 143.699219 323.230469 C 144.335938 323.65625 144.949219 324.113281 145.539062 324.601562 C 146.132812 325.089844 146.695312 325.605469 147.238281 326.148438 C 147.777344 326.691406 148.289062 327.257812 148.773438 327.851562 C 149.257812 328.445312 149.714844 329.058594 150.136719 329.699219 C 150.5625 330.335938 150.953125 330.992188 151.3125 331.667969 C 151.671875 332.347656 151.996094 333.039062 152.289062 333.746094 C 152.578125 334.457031 152.835938 335.175781 153.054688 335.910156 C 153.277344 336.644531 153.460938 337.386719 153.609375 338.136719 C 153.753906 338.890625 153.867188 339.644531 153.9375 340.410156 C 154.011719 341.171875 154.046875 341.933594 154.046875 342.699219 Z M 154.171875 342.957031 " fill-opacity="1" fill-rule="nonzero"/><path fill="#9e9ecc" d="M 335.574219 342.957031 C 335.574219 343.722656 335.535156 344.488281 335.460938 345.25 C 335.386719 346.011719 335.273438 346.765625 335.125 347.519531 C 334.976562 348.269531 334.789062 349.011719 334.566406 349.742188 C 334.34375 350.476562 334.085938 351.195312 333.792969 351.902344 C 333.5 352.609375 333.175781 353.300781 332.8125 353.976562 C 332.453125 354.652344 332.058594 355.308594 331.632812 355.945312 C 331.210938 356.578125 330.753906 357.195312 330.269531 357.785156 C 329.78125 358.378906 329.269531 358.945312 328.726562 359.484375 C 328.1875 360.027344 327.621094 360.539062 327.027344 361.027344 C 326.4375 361.511719 325.824219 361.96875 325.1875 362.390625 C 324.550781 362.816406 323.894531 363.210938 323.21875 363.570312 C 322.542969 363.933594 321.851562 364.257812 321.144531 364.550781 C 320.4375 364.84375 319.71875 365.101562 318.984375 365.324219 C 318.253906 365.546875 317.511719 365.734375 316.761719 365.882812 C 316.007812 366.03125 315.253906 366.144531 314.492188 366.21875 C 313.730469 366.292969 312.964844 366.332031 312.199219 366.332031 C 311.433594 366.332031 310.671875 366.292969 309.910156 366.21875 C 309.148438 366.144531 308.390625 366.03125 307.640625 365.882812 C 306.890625 365.734375 306.148438 365.546875 305.414062 365.324219 C 304.683594 365.101562 303.964844 364.84375 303.253906 364.550781 C 302.546875 364.257812 301.855469 363.933594 301.183594 363.570312 C 300.507812 363.210938 299.851562 362.816406 299.214844 362.390625 C 298.578125 361.96875 297.964844 361.511719 297.371094 361.027344 C 296.78125 360.539062 296.214844 360.027344 295.671875 359.484375 C 295.132812 358.945312 294.617188 358.378906 294.132812 357.785156 C 293.648438 357.195312 293.191406 356.578125 292.765625 355.945312 C 292.339844 355.308594 291.949219 354.652344 291.585938 353.976562 C 291.226562 353.300781 290.898438 352.609375 290.605469 351.902344 C 290.3125 351.195312 290.054688 350.476562 289.832031 349.742188 C 289.609375 349.011719 289.425781 348.269531 289.277344 347.519531 C 289.125 346.765625 289.015625 346.011719 288.941406 345.25 C 288.863281 344.488281 288.828125 343.722656 288.828125 342.957031 C 288.828125 342.191406 288.863281 341.429688 288.941406 340.667969 C 289.015625 339.90625 289.125 339.148438 289.277344 338.398438 C 289.425781 337.648438 289.609375 336.90625 289.832031 336.171875 C 290.054688 335.441406 290.3125 334.71875 290.605469 334.011719 C 290.898438 333.304688 291.226562 332.613281 291.585938 331.941406 C 291.949219 331.265625 292.339844 330.609375 292.765625 329.972656 C 293.191406 329.335938 293.648438 328.722656 294.132812 328.128906 C 294.617188 327.539062 295.132812 326.972656 295.671875 326.429688 C 296.214844 325.890625 296.78125 325.375 297.371094 324.890625 C 297.964844 324.40625 298.578125 323.949219 299.214844 323.523438 C 299.851562 323.097656 300.507812 322.707031 301.183594 322.34375 C 301.855469 321.984375 302.546875 321.65625 303.253906 321.363281 C 303.964844 321.070312 304.683594 320.8125 305.414062 320.589844 C 306.148438 320.367188 306.890625 320.183594 307.640625 320.035156 C 308.390625 319.882812 309.148438 319.773438 309.910156 319.699219 C 310.671875 319.621094 311.433594 319.585938 312.199219 319.585938 C 312.96875 319.582031 313.730469 319.613281 314.496094 319.6875 C 315.257812 319.757812 316.015625 319.867188 316.769531 320.011719 C 317.523438 320.160156 318.265625 320.34375 319 320.5625 C 319.734375 320.78125 320.457031 321.039062 321.164062 321.328125 C 321.875 321.621094 322.566406 321.945312 323.242188 322.304688 C 323.921875 322.667969 324.578125 323.058594 325.214844 323.484375 C 325.855469 323.910156 326.46875 324.363281 327.0625 324.851562 C 327.65625 325.335938 328.222656 325.851562 328.765625 326.394531 C 329.308594 326.933594 329.820312 327.503906 330.308594 328.09375 C 330.792969 328.6875 331.25 329.304688 331.675781 329.941406 C 332.097656 330.578125 332.492188 331.238281 332.851562 331.914062 C 333.210938 332.589844 333.539062 333.285156 333.828125 333.992188 C 334.121094 334.703125 334.375 335.425781 334.597656 336.160156 C 334.816406 336.894531 335 337.636719 335.144531 338.390625 C 335.292969 339.140625 335.402344 339.898438 335.472656 340.664062 C 335.542969 341.425781 335.578125 342.191406 335.574219 342.957031 Z M 335.574219 342.957031 " fill-opacity="1" fill-rule="nonzero"/><path fill="#c9c1f5" d="M 139.40625 354.195312 C 139.417969 358.253906 138.414062 362.042969 136.386719 365.5625 C 134.5 365.949219 132.597656 366.101562 130.671875 366.011719 C 129.65625 366.015625 128.644531 365.957031 127.636719 365.832031 C 126.628906 365.707031 125.632812 365.515625 124.652344 365.257812 C 123.667969 365 122.707031 364.679688 121.765625 364.296875 C 120.824219 363.914062 119.910156 363.472656 119.027344 362.972656 C 118.144531 362.46875 117.300781 361.910156 116.488281 361.296875 C 115.679688 360.683594 114.914062 360.023438 114.191406 359.308594 C 113.46875 358.59375 112.792969 357.835938 112.171875 357.035156 C 111.546875 356.234375 110.980469 355.394531 110.464844 354.515625 C 109.953125 353.640625 109.496094 352.734375 109.101562 351.800781 C 108.707031 350.863281 108.375 349.90625 108.105469 348.925781 C 107.835938 347.945312 107.632812 346.953125 107.496094 345.945312 C 107.355469 344.941406 107.28125 343.929688 107.277344 342.914062 C 107.269531 341.898438 107.328125 340.886719 107.457031 339.878906 C 107.582031 338.871094 107.773438 337.875 108.03125 336.894531 C 108.285156 335.910156 108.605469 334.949219 108.988281 334.007812 C 109.371094 333.066406 109.816406 332.152344 110.316406 331.269531 C 111.175781 331.054688 112.042969 330.886719 112.917969 330.765625 C 113.796875 330.648438 114.675781 330.582031 115.558594 330.5625 C 116.445312 330.542969 117.328125 330.578125 118.207031 330.660156 C 119.089844 330.742188 119.964844 330.875 120.828125 331.058594 C 121.695312 331.242188 122.546875 331.472656 123.386719 331.75 C 124.226562 332.03125 125.046875 332.359375 125.847656 332.730469 C 126.648438 333.105469 127.429688 333.523438 128.183594 333.984375 C 128.9375 334.449219 129.664062 334.953125 130.359375 335.496094 C 131.054688 336.042969 131.71875 336.625 132.347656 337.246094 C 132.980469 337.867188 133.574219 338.523438 134.128906 339.210938 C 134.683594 339.902344 135.199219 340.621094 135.671875 341.367188 C 136.144531 342.113281 136.574219 342.886719 136.957031 343.683594 C 137.34375 344.480469 137.683594 345.296875 137.972656 346.128906 C 138.265625 346.964844 138.511719 347.816406 138.703125 348.679688 C 138.898438 349.539062 139.046875 350.414062 139.140625 351.292969 C 139.238281 352.171875 139.28125 353.054688 139.277344 353.9375 Z M 139.40625 354.195312 " fill-opacity="1" fill-rule="nonzero"/><path fill="#c9c1f5" d="M 320.804688 354.195312 C 320.84375 358.25 319.859375 362.039062 317.851562 365.5625 C 316.992188 365.777344 316.128906 365.945312 315.25 366.0625 C 314.375 366.183594 313.496094 366.25 312.613281 366.269531 C 311.726562 366.285156 310.847656 366.253906 309.964844 366.171875 C 309.085938 366.089844 308.214844 365.957031 307.347656 365.777344 C 306.484375 365.59375 305.628906 365.363281 304.792969 365.085938 C 303.953125 364.808594 303.132812 364.480469 302.332031 364.109375 C 301.527344 363.738281 300.75 363.320312 299.996094 362.859375 C 299.242188 362.402344 298.515625 361.898438 297.816406 361.355469 C 297.121094 360.8125 296.453125 360.230469 295.824219 359.613281 C 295.191406 358.992188 294.597656 358.339844 294.039062 357.652344 C 293.484375 356.96875 292.964844 356.25 292.492188 355.507812 C 292.015625 354.761719 291.582031 353.992188 291.195312 353.195312 C 290.804688 352.402344 290.464844 351.589844 290.167969 350.753906 C 289.875 349.921875 289.625 349.074219 289.425781 348.210938 C 289.226562 347.351562 289.078125 346.480469 288.976562 345.601562 C 288.878906 344.722656 288.828125 343.84375 288.828125 342.957031 C 288.828125 338.882812 289.835938 335.074219 291.84375 331.527344 C 292.703125 331.3125 293.570312 331.144531 294.445312 331.023438 C 295.324219 330.90625 296.203125 330.835938 297.089844 330.820312 C 297.972656 330.800781 298.855469 330.832031 299.738281 330.917969 C 300.617188 331 301.492188 331.132812 302.355469 331.316406 C 303.222656 331.496094 304.074219 331.730469 304.914062 332.007812 C 305.753906 332.289062 306.574219 332.617188 307.375 332.988281 C 308.179688 333.363281 308.957031 333.78125 309.710938 334.242188 C 310.464844 334.707031 311.191406 335.210938 311.886719 335.753906 C 312.585938 336.300781 313.246094 336.882812 313.878906 337.503906 C 314.507812 338.125 315.101562 338.78125 315.65625 339.46875 C 316.210938 340.15625 316.726562 340.875 317.199219 341.625 C 317.671875 342.371094 318.101562 343.144531 318.488281 343.941406 C 318.871094 344.738281 319.210938 345.550781 319.503906 346.386719 C 319.792969 347.222656 320.039062 348.070312 320.234375 348.933594 C 320.429688 349.796875 320.574219 350.667969 320.667969 351.546875 C 320.765625 352.429688 320.808594 353.308594 320.804688 354.195312 Z M 320.804688 354.195312 " fill-opacity="1" fill-rule="nonzero"/><path fill="#616199" d="M 368.257812 295.375 L 95.226562 295.375 C 64.660156 295.375 64.660156 281.3125 64.660156 276.113281 C 64.734375 274.953125 64.929688 273.816406 65.25 272.699219 C 65.570312 271.582031 66.007812 270.515625 66.5625 269.496094 C 67.117188 268.472656 67.777344 267.527344 68.539062 266.648438 C 69.300781 265.773438 70.148438 264.988281 71.082031 264.296875 C 73.886719 262.199219 76.921875 260.535156 80.199219 259.300781 C 83.472656 258.066406 86.855469 257.3125 90.347656 257.042969 L 92.851562 256.59375 L 93.429688 256.59375 L 333.777344 218.320312 C 335.128906 218.113281 336.46875 217.84375 337.796875 217.515625 C 339.125 217.1875 340.4375 216.800781 341.730469 216.355469 C 343.027344 215.910156 344.296875 215.40625 345.546875 214.847656 C 346.796875 214.289062 348.019531 213.675781 349.214844 213.011719 C 350.410156 212.34375 351.574219 211.625 352.703125 210.855469 C 353.835938 210.082031 354.929688 209.265625 355.988281 208.398438 C 357.046875 207.527344 358.0625 206.617188 359.042969 205.65625 C 360.019531 204.699219 360.953125 203.699219 361.839844 202.65625 C 362.726562 201.617188 363.566406 200.539062 364.359375 199.421875 C 365.152344 198.304688 365.894531 197.15625 366.582031 195.972656 C 367.273438 194.792969 367.910156 193.582031 368.492188 192.34375 C 369.074219 191.105469 369.601562 189.84375 370.070312 188.558594 C 370.542969 187.273438 370.953125 185.96875 371.308594 184.648438 C 371.664062 183.324219 371.957031 181.988281 372.191406 180.640625 C 372.429688 179.292969 372.605469 177.9375 372.71875 176.574219 C 372.832031 175.210938 372.886719 173.84375 372.882812 172.472656 L 372.882812 57.792969 C 372.882812 57.371094 372.839844 56.953125 372.757812 56.539062 C 372.675781 56.125 372.554688 55.722656 372.390625 55.332031 C 372.230469 54.945312 372.03125 54.574219 371.796875 54.222656 C 371.566406 53.875 371.296875 53.546875 371 53.25 C 370.703125 52.953125 370.378906 52.6875 370.027344 52.453125 C 369.675781 52.21875 369.304688 52.019531 368.917969 51.859375 C 368.527344 51.699219 368.125 51.574219 367.710938 51.492188 C 367.300781 51.410156 366.882812 51.371094 366.460938 51.371094 L 271.167969 51.371094 C 270.949219 49.628906 270.65625 47.898438 270.28125 46.183594 C 269.90625 44.464844 269.457031 42.769531 268.929688 41.09375 C 268.398438 39.421875 267.796875 37.773438 267.121094 36.152344 C 266.445312 34.53125 265.695312 32.945312 264.875 31.390625 C 264.054688 29.839844 263.167969 28.324219 262.210938 26.851562 C 261.253906 25.378906 260.230469 23.953125 259.144531 22.574219 C 258.058594 21.195312 256.914062 19.867188 255.707031 18.589844 C 254.5 17.3125 253.238281 16.09375 251.921875 14.929688 C 250.605469 13.769531 249.238281 12.667969 247.824219 11.628906 C 246.40625 10.589844 244.945312 9.617188 243.441406 8.710938 C 241.9375 7.804688 240.394531 6.96875 238.816406 6.199219 C 237.238281 5.433594 235.625 4.738281 233.984375 4.117188 C 232.339844 3.496094 230.671875 2.949219 228.980469 2.480469 C 227.289062 2.007812 225.578125 1.617188 223.851562 1.300781 C 222.125 0.984375 220.382812 0.746094 218.636719 0.589844 C 216.886719 0.429688 215.132812 0.351562 213.378906 0.351562 C 211.621094 0.351562 209.867188 0.429688 208.121094 0.589844 C 206.371094 0.746094 204.632812 0.984375 202.90625 1.300781 C 201.175781 1.617188 199.46875 2.007812 197.773438 2.480469 C 196.082031 2.949219 194.414062 3.496094 192.773438 4.117188 C 191.128906 4.738281 189.519531 5.433594 187.9375 6.199219 C 186.359375 6.96875 184.816406 7.804688 183.3125 8.710938 C 181.808594 9.617188 180.347656 10.589844 178.933594 11.628906 C 177.515625 12.667969 176.148438 13.769531 174.832031 14.929688 C 173.515625 16.09375 172.253906 17.3125 171.046875 18.589844 C 169.84375 19.867188 168.695312 21.195312 167.609375 22.574219 C 166.523438 23.953125 165.503906 25.378906 164.546875 26.851562 C 163.589844 28.324219 162.699219 29.839844 161.878906 31.390625 C 161.058594 32.945312 160.308594 34.53125 159.632812 36.152344 C 158.957031 37.773438 158.355469 39.421875 157.828125 41.09375 C 157.300781 42.769531 156.847656 44.464844 156.472656 46.183594 C 156.101562 47.898438 155.804688 49.628906 155.585938 51.371094 L 63.25 51.371094 L 58.625 25.683594 C 58.472656 24.796875 58.285156 23.917969 58.054688 23.046875 C 57.828125 22.175781 57.558594 21.316406 57.257812 20.464844 C 56.953125 19.617188 56.613281 18.785156 56.234375 17.964844 C 55.859375 17.148438 55.445312 16.347656 55 15.566406 C 54.550781 14.785156 54.074219 14.023438 53.558594 13.28125 C 53.046875 12.542969 52.5 11.824219 51.925781 11.132812 C 51.347656 10.441406 50.742188 9.773438 50.109375 9.132812 C 49.472656 8.496094 48.8125 7.882812 48.125 7.300781 C 47.4375 6.71875 46.726562 6.171875 45.988281 5.652344 C 45.253906 5.132812 44.496094 4.644531 43.714844 4.191406 C 42.9375 3.738281 42.140625 3.320312 41.324219 2.9375 C 40.511719 2.554688 39.679688 2.207031 38.835938 1.894531 C 37.988281 1.585938 37.132812 1.3125 36.261719 1.074219 C 35.390625 0.839844 34.515625 0.644531 33.625 0.484375 C 32.738281 0.324219 31.847656 0.207031 30.949219 0.125 C 30.054688 0.0429688 29.15625 0.00390625 28.253906 0 L 6.871094 0 C 6.449219 0 6.03125 0.0429688 5.617188 0.125 C 5.203125 0.207031 4.804688 0.328125 4.414062 0.488281 C 4.023438 0.648438 3.652344 0.847656 3.304688 1.082031 C 2.953125 1.316406 2.628906 1.582031 2.332031 1.878906 C 2.03125 2.179688 1.765625 2.503906 1.53125 2.855469 C 1.296875 3.203125 1.097656 3.574219 0.9375 3.964844 C 0.777344 4.351562 0.65625 4.753906 0.574219 5.167969 C 0.492188 5.582031 0.449219 6 0.449219 6.421875 C 0.449219 6.84375 0.492188 7.261719 0.574219 7.675781 C 0.65625 8.085938 0.777344 8.488281 0.9375 8.878906 C 1.097656 9.269531 1.296875 9.636719 1.53125 9.988281 C 1.765625 10.339844 2.03125 10.664062 2.332031 10.960938 C 2.628906 11.261719 2.953125 11.527344 3.304688 11.761719 C 3.652344 11.996094 4.023438 12.191406 4.414062 12.355469 C 4.804688 12.515625 5.203125 12.636719 5.617188 12.71875 C 6.03125 12.800781 6.449219 12.84375 6.871094 12.84375 L 28.253906 12.84375 C 29.300781 12.84375 30.335938 12.933594 31.367188 13.117188 C 32.394531 13.296875 33.402344 13.566406 34.382812 13.921875 C 35.367188 14.28125 36.3125 14.71875 37.21875 15.238281 C 38.125 15.761719 38.980469 16.355469 39.785156 17.023438 C 40.585938 17.695312 41.324219 18.425781 42 19.226562 C 42.675781 20.023438 43.277344 20.875 43.808594 21.777344 C 44.335938 22.679688 44.78125 23.621094 45.144531 24.597656 C 45.507812 25.578125 45.785156 26.582031 45.976562 27.609375 L 84.503906 244.839844 C 80.53125 245.488281 76.695312 246.609375 73 248.207031 C 69.304688 249.800781 65.863281 251.828125 62.671875 254.28125 C 61.011719 255.582031 59.519531 257.050781 58.1875 258.6875 C 56.855469 260.320312 55.71875 262.085938 54.78125 263.972656 C 53.84375 265.859375 53.125 267.828125 52.625 269.878906 C 52.125 271.925781 51.855469 274.003906 51.820312 276.113281 C 51.820312 288.121094 57.46875 308.21875 95.226562 308.21875 L 368.257812 308.21875 C 368.679688 308.21875 369.097656 308.179688 369.511719 308.097656 C 369.925781 308.011719 370.324219 307.890625 370.714844 307.730469 C 371.105469 307.570312 371.472656 307.371094 371.824219 307.136719 C 372.175781 306.902344 372.5 306.636719 372.796875 306.339844 C 373.097656 306.039062 373.363281 305.714844 373.597656 305.367188 C 373.832031 305.015625 374.027344 304.644531 374.191406 304.253906 C 374.351562 303.867188 374.472656 303.464844 374.554688 303.050781 C 374.636719 302.636719 374.679688 302.21875 374.679688 301.796875 C 374.679688 301.375 374.636719 300.957031 374.554688 300.546875 C 374.472656 300.132812 374.351562 299.730469 374.191406 299.339844 C 374.027344 298.949219 373.832031 298.582031 373.597656 298.230469 C 373.363281 297.878906 373.097656 297.554688 372.796875 297.257812 C 372.5 296.960938 372.175781 296.691406 371.824219 296.457031 C 371.472656 296.222656 371.105469 296.027344 370.714844 295.867188 C 370.324219 295.703125 369.925781 295.582031 369.511719 295.5 C 369.097656 295.417969 368.679688 295.375 368.257812 295.375 Z M 213.25 12.84375 C 214.742188 12.84375 216.230469 12.914062 217.714844 13.0625 C 219.199219 13.210938 220.675781 13.429688 222.140625 13.722656 C 223.601562 14.011719 225.046875 14.375 226.476562 14.808594 C 227.90625 15.246094 229.308594 15.746094 230.6875 16.320312 C 232.0625 16.894531 233.410156 17.53125 234.726562 18.238281 C 236.042969 18.941406 237.320312 19.710938 238.558594 20.542969 C 239.800781 21.371094 240.996094 22.261719 242.148438 23.210938 C 243.300781 24.160156 244.402344 25.164062 245.457031 26.21875 C 246.507812 27.277344 247.507812 28.382812 248.453125 29.539062 C 249.394531 30.695312 250.28125 31.894531 251.105469 33.136719 C 251.933594 34.382812 252.695312 35.660156 253.398438 36.980469 C 254.097656 38.296875 254.730469 39.648438 255.296875 41.027344 C 255.863281 42.410156 256.363281 43.8125 256.792969 45.242188 C 257.21875 46.671875 257.578125 48.121094 257.863281 49.585938 C 258.152344 51.050781 258.363281 52.523438 258.503906 54.011719 C 258.644531 55.496094 258.714844 56.984375 258.707031 58.476562 C 258.703125 59.96875 258.625 61.460938 258.472656 62.945312 C 258.320312 64.429688 258.09375 65.902344 257.796875 67.363281 C 257.5 68.828125 257.128906 70.273438 256.691406 71.699219 C 256.25 73.125 255.742188 74.527344 255.164062 75.902344 C 254.585938 77.277344 253.941406 78.621094 253.234375 79.933594 C 252.523438 81.246094 251.75 82.523438 250.914062 83.757812 C 250.078125 84.996094 249.183594 86.1875 248.230469 87.335938 C 247.277344 88.484375 246.269531 89.585938 245.210938 90.632812 C 244.148438 91.683594 243.039062 92.675781 241.878906 93.617188 C 240.71875 94.558594 239.515625 95.4375 238.269531 96.261719 C 237.023438 97.082031 235.742188 97.839844 234.421875 98.535156 C 233.101562 99.230469 231.75 99.859375 230.367188 100.421875 C 228.984375 100.984375 227.574219 101.476562 226.144531 101.898438 C 224.714844 102.324219 223.265625 102.675781 221.800781 102.957031 C 220.332031 103.234375 218.855469 103.445312 217.371094 103.578125 C 215.882812 103.714844 214.394531 103.777344 212.902344 103.765625 C 211.410156 103.753906 209.921875 103.671875 208.4375 103.511719 C 206.953125 103.355469 205.480469 103.125 204.019531 102.820312 C 202.558594 102.519531 201.113281 102.144531 199.691406 101.699219 C 198.265625 101.253906 196.867188 100.738281 195.492188 100.15625 C 194.117188 99.574219 192.777344 98.925781 191.464844 98.210938 C 190.15625 97.496094 188.882812 96.71875 187.652344 95.878906 C 186.417969 95.039062 185.226562 94.136719 184.082031 93.179688 C 182.9375 92.222656 181.84375 91.210938 180.796875 90.148438 C 179.753906 89.082031 178.761719 87.96875 177.828125 86.804688 C 176.890625 85.640625 176.015625 84.4375 175.199219 83.1875 C 174.378906 81.9375 173.628906 80.652344 172.9375 79.328125 C 172.246094 78.003906 171.625 76.652344 171.066406 75.265625 C 170.507812 73.882812 170.023438 72.472656 169.605469 71.039062 C 169.1875 69.605469 168.839844 68.15625 168.5625 66.691406 C 168.289062 65.222656 168.085938 63.746094 167.957031 62.261719 C 167.828125 60.773438 167.769531 59.285156 167.785156 57.792969 C 167.804688 56.3125 167.894531 54.839844 168.058594 53.371094 C 168.21875 51.902344 168.453125 50.445312 168.757812 49 C 169.0625 47.554688 169.433594 46.125 169.878906 44.714844 C 170.320312 43.304688 170.832031 41.921875 171.410156 40.5625 C 171.988281 39.199219 172.632812 37.871094 173.339844 36.574219 C 174.046875 35.277344 174.816406 34.015625 175.644531 32.796875 C 176.476562 31.574219 177.363281 30.394531 178.308594 29.257812 C 179.253906 28.121094 180.25 27.035156 181.300781 25.996094 C 182.351562 24.957031 183.449219 23.96875 184.597656 23.039062 C 185.746094 22.105469 186.933594 21.230469 188.164062 20.414062 C 189.398438 19.601562 190.664062 18.84375 191.972656 18.152344 C 193.277344 17.460938 194.613281 16.832031 195.980469 16.269531 C 197.34375 15.707031 198.734375 15.210938 200.152344 14.785156 C 201.566406 14.359375 202.996094 14 204.445312 13.714844 C 205.894531 13.425781 207.355469 13.210938 208.828125 13.0625 C 210.296875 12.917969 211.769531 12.84375 213.25 12.84375 Z M 155.457031 64.726562 C 155.675781 66.46875 155.972656 68.199219 156.347656 69.914062 C 156.71875 71.628906 157.171875 73.324219 157.699219 75 C 158.226562 76.675781 158.828125 78.324219 159.503906 79.945312 C 160.183594 81.566406 160.929688 83.152344 161.75 84.703125 C 162.570312 86.257812 163.460938 87.769531 164.417969 89.242188 C 165.375 90.714844 166.394531 92.140625 167.480469 93.523438 C 168.566406 94.902344 169.714844 96.230469 170.921875 97.507812 C 172.125 98.785156 173.386719 100.003906 174.703125 101.164062 C 176.019531 102.328125 177.386719 103.429688 178.804688 104.464844 C 180.21875 105.503906 181.679688 106.476562 183.183594 107.382812 C 184.6875 108.292969 186.230469 109.128906 187.808594 109.894531 C 189.390625 110.664062 191 111.355469 192.644531 111.976562 C 194.285156 112.597656 195.953125 113.144531 197.644531 113.617188 C 199.339844 114.085938 201.046875 114.480469 202.777344 114.796875 C 204.503906 115.109375 206.242188 115.347656 207.992188 115.507812 C 209.738281 115.664062 211.492188 115.746094 213.25 115.746094 C 215.003906 115.746094 216.757812 115.664062 218.507812 115.507812 C 220.257812 115.347656 221.996094 115.109375 223.722656 114.796875 C 225.449219 114.480469 227.160156 114.085938 228.851562 113.617188 C 230.542969 113.144531 232.210938 112.597656 233.855469 111.976562 C 235.496094 111.355469 237.109375 110.664062 238.6875 109.894531 C 240.269531 109.128906 241.808594 108.292969 243.3125 107.382812 C 244.816406 106.476562 246.277344 105.503906 247.695312 104.464844 C 249.109375 103.429688 250.476562 102.328125 251.792969 101.164062 C 253.109375 100.003906 254.371094 98.785156 255.578125 97.507812 C 256.785156 96.230469 257.929688 94.902344 259.015625 93.523438 C 260.101562 92.140625 261.125 90.714844 262.082031 89.242188 C 263.039062 87.769531 263.925781 86.257812 264.746094 84.703125 C 265.566406 83.152344 266.316406 81.566406 266.992188 79.945312 C 267.667969 78.324219 268.273438 76.675781 268.800781 75 C 269.328125 73.324219 269.777344 71.628906 270.152344 69.914062 C 270.527344 68.199219 270.824219 66.46875 271.039062 64.726562 L 360.039062 64.726562 L 360.039062 172.667969 C 360.042969 173.65625 360.003906 174.644531 359.921875 175.632812 C 359.839844 176.621094 359.714844 177.601562 359.542969 178.578125 C 359.375 179.550781 359.160156 180.519531 358.902344 181.476562 C 358.648438 182.433594 358.351562 183.375 358.007812 184.304688 C 357.667969 185.234375 357.289062 186.148438 356.867188 187.042969 C 356.445312 187.941406 355.984375 188.816406 355.484375 189.671875 C 354.984375 190.527344 354.445312 191.359375 353.875 192.164062 C 353.300781 192.972656 352.691406 193.75 352.046875 194.503906 C 351.402344 195.257812 350.726562 195.980469 350.019531 196.671875 C 349.3125 197.367188 348.574219 198.027344 347.808594 198.652344 C 347.042969 199.277344 346.25 199.871094 345.429688 200.425781 C 344.609375 200.984375 343.765625 201.5 342.902344 201.984375 C 342.035156 202.464844 341.148438 202.90625 340.246094 203.308594 C 339.339844 203.710938 338.417969 204.070312 337.480469 204.390625 C 336.542969 204.710938 335.59375 204.988281 334.632812 205.222656 C 333.671875 205.460938 332.699219 205.652344 331.722656 205.800781 L 97.472656 243.042969 L 65.5625 64.210938 Z M 155.457031 64.726562 " fill-opacity="1" fill-rule="nonzero"/><path fill="#616199" d="M 130.160156 313.164062 C 129.183594 313.164062 128.207031 313.210938 127.238281 313.308594 C 126.265625 313.402344 125.300781 313.546875 124.34375 313.738281 C 123.386719 313.925781 122.441406 314.164062 121.503906 314.449219 C 120.570312 314.730469 119.652344 315.058594 118.75 315.433594 C 117.851562 315.808594 116.96875 316.222656 116.109375 316.683594 C 115.246094 317.144531 114.410156 317.648438 113.597656 318.1875 C 112.789062 318.730469 112.003906 319.3125 111.25 319.933594 C 110.496094 320.550781 109.773438 321.207031 109.082031 321.898438 C 108.394531 322.589844 107.738281 323.3125 107.121094 324.066406 C 106.5 324.820312 105.917969 325.605469 105.378906 326.417969 C 104.835938 327.226562 104.335938 328.066406 103.875 328.925781 C 103.414062 329.789062 103 330.667969 102.625 331.570312 C 102.253906 332.472656 101.925781 333.390625 101.640625 334.324219 C 101.359375 335.261719 101.121094 336.207031 100.933594 337.164062 C 100.742188 338.121094 100.601562 339.085938 100.503906 340.058594 C 100.410156 341.03125 100.363281 342.003906 100.363281 342.980469 C 100.363281 343.957031 100.414062 344.929688 100.507812 345.902344 C 100.605469 346.871094 100.75 347.835938 100.941406 348.792969 C 101.132812 349.75 101.371094 350.699219 101.652344 351.632812 C 101.9375 352.566406 102.269531 353.484375 102.640625 354.382812 C 103.015625 355.285156 103.433594 356.167969 103.894531 357.027344 C 104.355469 357.886719 104.859375 358.722656 105.402344 359.535156 C 105.945312 360.347656 106.527344 361.128906 107.148438 361.882812 C 107.765625 362.636719 108.421875 363.359375 109.113281 364.046875 C 109.804688 364.738281 110.527344 365.390625 111.28125 366.011719 C 112.039062 366.628906 112.820312 367.210938 113.632812 367.75 C 114.445312 368.292969 115.285156 368.792969 116.144531 369.25 C 117.007812 369.710938 117.890625 370.125 118.792969 370.5 C 119.695312 370.871094 120.613281 371.199219 121.546875 371.480469 C 122.480469 371.761719 123.425781 372 124.386719 372.1875 C 125.34375 372.378906 126.308594 372.519531 127.28125 372.613281 C 128.25 372.707031 129.226562 372.753906 130.203125 372.753906 C 131.175781 372.75 132.152344 372.703125 133.121094 372.605469 C 134.09375 372.507812 135.058594 372.363281 136.015625 372.171875 C 136.972656 371.980469 137.917969 371.742188 138.851562 371.457031 C 139.785156 371.171875 140.703125 370.839844 141.605469 370.464844 C 142.507812 370.089844 143.386719 369.671875 144.246094 369.210938 C 145.105469 368.75 145.941406 368.246094 146.753906 367.703125 C 147.566406 367.160156 148.347656 366.578125 149.101562 365.957031 C 149.855469 365.335938 150.574219 364.679688 151.265625 363.988281 C 151.953125 363.296875 152.605469 362.574219 153.226562 361.816406 C 153.84375 361.0625 154.421875 360.277344 154.960938 359.464844 C 155.503906 358.652344 156.003906 357.8125 156.460938 356.953125 C 156.921875 356.089844 157.335938 355.207031 157.707031 354.304688 C 158.078125 353.402344 158.40625 352.484375 158.6875 351.550781 C 158.96875 350.613281 159.203125 349.667969 159.390625 348.710938 C 159.582031 347.753906 159.722656 346.789062 159.816406 345.816406 C 159.910156 344.84375 159.953125 343.871094 159.953125 342.894531 C 159.949219 341.917969 159.902344 340.949219 159.804688 339.976562 C 159.707031 339.007812 159.5625 338.046875 159.371094 337.089844 C 159.175781 336.136719 158.9375 335.191406 158.65625 334.257812 C 158.371094 333.328125 158.039062 332.410156 157.667969 331.511719 C 157.292969 330.613281 156.875 329.734375 156.414062 328.875 C 155.953125 328.015625 155.453125 327.179688 154.910156 326.371094 C 154.367188 325.5625 153.785156 324.78125 153.167969 324.027344 C 152.546875 323.277344 151.894531 322.554688 151.203125 321.867188 C 150.515625 321.179688 149.792969 320.527344 149.039062 319.910156 C 148.285156 319.292969 147.503906 318.710938 146.691406 318.171875 C 145.878906 317.628906 145.046875 317.132812 144.1875 316.671875 C 143.324219 316.214844 142.445312 315.796875 141.546875 315.425781 C 140.644531 315.054688 139.726562 314.726562 138.796875 314.441406 C 137.863281 314.160156 136.917969 313.925781 135.964844 313.734375 C 135.007812 313.542969 134.042969 313.402344 133.074219 313.304688 C 132.105469 313.210938 131.132812 313.164062 130.160156 313.164062 Z M 130.160156 359.847656 C 129.601562 359.847656 129.050781 359.820312 128.496094 359.765625 C 127.945312 359.710938 127.394531 359.628906 126.851562 359.519531 C 126.308594 359.410156 125.769531 359.277344 125.238281 359.117188 C 124.707031 358.953125 124.183594 358.769531 123.671875 358.554688 C 123.15625 358.34375 122.65625 358.105469 122.167969 357.84375 C 121.675781 357.582031 121.203125 357.296875 120.742188 356.988281 C 120.277344 356.679688 119.832031 356.351562 119.402344 355.996094 C 118.976562 355.644531 118.5625 355.273438 118.171875 354.878906 C 117.777344 354.488281 117.40625 354.078125 117.054688 353.648438 C 116.703125 353.21875 116.371094 352.773438 116.0625 352.3125 C 115.753906 351.851562 115.46875 351.375 115.207031 350.886719 C 114.945312 350.394531 114.710938 349.894531 114.496094 349.382812 C 114.285156 348.867188 114.097656 348.347656 113.9375 347.816406 C 113.773438 347.285156 113.640625 346.746094 113.53125 346.199219 C 113.421875 345.65625 113.34375 345.109375 113.289062 344.554688 C 113.234375 344.003906 113.207031 343.449219 113.207031 342.894531 C 113.207031 342.339844 113.234375 341.785156 113.289062 341.230469 C 113.34375 340.679688 113.421875 340.132812 113.53125 339.585938 C 113.640625 339.042969 113.773438 338.503906 113.9375 337.972656 C 114.097656 337.441406 114.285156 336.917969 114.496094 336.40625 C 114.710938 335.894531 114.945312 335.390625 115.207031 334.902344 C 115.46875 334.414062 115.753906 333.9375 116.0625 333.476562 C 116.371094 333.015625 116.703125 332.570312 117.054688 332.140625 C 117.40625 331.710938 117.777344 331.300781 118.171875 330.90625 C 118.5625 330.515625 118.976562 330.140625 119.402344 329.789062 C 119.832031 329.4375 120.277344 329.105469 120.742188 328.796875 C 121.203125 328.492188 121.675781 328.207031 122.167969 327.945312 C 122.65625 327.683594 123.15625 327.445312 123.671875 327.230469 C 124.183594 327.019531 124.707031 326.832031 125.238281 326.671875 C 125.769531 326.511719 126.308594 326.375 126.851562 326.265625 C 127.394531 326.160156 127.945312 326.078125 128.496094 326.023438 C 129.050781 325.96875 129.601562 325.941406 130.160156 325.941406 C 130.714844 325.941406 131.265625 325.96875 131.820312 326.023438 C 132.371094 326.078125 132.921875 326.160156 133.464844 326.265625 C 134.011719 326.375 134.546875 326.511719 135.078125 326.671875 C 135.609375 326.832031 136.132812 327.019531 136.644531 327.230469 C 137.160156 327.445312 137.660156 327.683594 138.148438 327.945312 C 138.640625 328.207031 139.113281 328.488281 139.578125 328.796875 C 140.039062 329.105469 140.484375 329.4375 140.914062 329.789062 C 141.34375 330.140625 141.753906 330.515625 142.144531 330.90625 C 142.539062 331.300781 142.910156 331.710938 143.261719 332.140625 C 143.613281 332.570312 143.945312 333.015625 144.253906 333.476562 C 144.5625 333.9375 144.847656 334.414062 145.109375 334.902344 C 145.371094 335.390625 145.609375 335.894531 145.820312 336.40625 C 146.03125 336.917969 146.21875 337.441406 146.378906 337.972656 C 146.542969 338.503906 146.675781 339.042969 146.785156 339.585938 C 146.894531 340.132812 146.972656 340.679688 147.027344 341.230469 C 147.082031 341.785156 147.109375 342.339844 147.109375 342.894531 C 147.101562 343.445312 147.066406 343.992188 147.003906 344.539062 C 146.945312 345.085938 146.855469 345.625 146.742188 346.164062 C 146.628906 346.703125 146.488281 347.234375 146.320312 347.757812 C 146.15625 348.28125 145.964844 348.796875 145.746094 349.300781 C 145.53125 349.808594 145.292969 350.300781 145.027344 350.785156 C 144.761719 351.265625 144.476562 351.734375 144.164062 352.1875 C 143.855469 352.640625 143.523438 353.082031 143.171875 353.503906 C 142.820312 353.925781 142.449219 354.328125 142.054688 354.714844 C 141.664062 355.101562 141.253906 355.464844 140.828125 355.8125 C 140.398438 356.15625 139.957031 356.480469 139.496094 356.785156 C 139.039062 357.089844 138.566406 357.367188 138.082031 357.625 C 137.59375 357.882812 137.097656 358.113281 136.585938 358.324219 C 136.078125 358.53125 135.5625 358.714844 135.035156 358.871094 C 134.507812 359.03125 133.972656 359.164062 133.433594 359.269531 C 132.894531 359.375 132.351562 359.457031 131.804688 359.507812 C 131.257812 359.5625 130.707031 359.589844 130.160156 359.589844 Z M 130.160156 359.847656 " fill-opacity="1" fill-rule="nonzero"/><path fill="#616199" d="M 311.558594 313.164062 C 310.582031 313.164062 309.609375 313.210938 308.636719 313.308594 C 307.664062 313.402344 306.699219 313.546875 305.742188 313.738281 C 304.785156 313.925781 303.839844 314.164062 302.90625 314.449219 C 301.972656 314.730469 301.054688 315.058594 300.152344 315.433594 C 299.25 315.808594 298.367188 316.222656 297.507812 316.683594 C 296.644531 317.144531 295.808594 317.648438 295 318.1875 C 294.1875 318.730469 293.402344 319.3125 292.648438 319.933594 C 291.894531 320.550781 291.171875 321.207031 290.484375 321.898438 C 289.792969 322.589844 289.136719 323.3125 288.519531 324.066406 C 287.898438 324.820312 287.320312 325.605469 286.777344 326.417969 C 286.234375 327.226562 285.734375 328.066406 285.273438 328.925781 C 284.816406 329.789062 284.398438 330.667969 284.027344 331.570312 C 283.652344 332.472656 283.324219 333.390625 283.042969 334.324219 C 282.757812 335.261719 282.523438 336.207031 282.332031 337.164062 C 282.144531 338.121094 282 339.085938 281.90625 340.058594 C 281.808594 341.03125 281.761719 342.003906 281.765625 342.980469 C 281.765625 343.957031 281.8125 344.929688 281.910156 345.902344 C 282.003906 346.871094 282.148438 347.835938 282.339844 348.792969 C 282.53125 349.75 282.769531 350.699219 283.054688 351.632812 C 283.339844 352.566406 283.667969 353.484375 284.042969 354.382812 C 284.417969 355.285156 284.835938 356.167969 285.296875 357.027344 C 285.757812 357.886719 286.257812 358.722656 286.800781 359.535156 C 287.34375 360.347656 287.925781 361.128906 288.546875 361.882812 C 289.167969 362.636719 289.820312 363.359375 290.511719 364.046875 C 291.203125 364.738281 291.925781 365.390625 292.683594 366.011719 C 293.4375 366.628906 294.222656 367.210938 295.035156 367.75 C 295.847656 368.292969 296.683594 368.792969 297.546875 369.25 C 298.40625 369.710938 299.289062 370.125 300.191406 370.5 C 301.09375 370.871094 302.011719 371.199219 302.945312 371.480469 C 303.882812 371.761719 304.828125 372 305.785156 372.1875 C 306.742188 372.378906 307.707031 372.519531 308.679688 372.613281 C 309.652344 372.707031 310.625 372.753906 311.601562 372.753906 C 312.578125 372.75 313.550781 372.703125 314.523438 372.605469 C 315.492188 372.507812 316.457031 372.363281 317.414062 372.171875 C 318.371094 371.980469 319.316406 371.742188 320.25 371.457031 C 321.1875 371.171875 322.101562 370.839844 323.003906 370.464844 C 323.90625 370.089844 324.785156 369.671875 325.648438 369.210938 C 326.507812 368.75 327.34375 368.246094 328.152344 367.703125 C 328.964844 367.160156 329.746094 366.578125 330.5 365.957031 C 331.253906 365.335938 331.976562 364.679688 332.664062 363.988281 C 333.351562 363.296875 334.007812 362.574219 334.625 361.816406 C 335.242188 361.0625 335.820312 360.277344 336.363281 359.464844 C 336.902344 358.652344 337.402344 357.8125 337.863281 356.953125 C 338.320312 356.089844 338.734375 355.207031 339.105469 354.304688 C 339.480469 353.402344 339.804688 352.484375 340.085938 351.550781 C 340.367188 350.613281 340.605469 349.667969 340.792969 348.710938 C 340.980469 347.753906 341.121094 346.789062 341.214844 345.816406 C 341.308594 344.84375 341.355469 343.871094 341.351562 342.894531 C 341.351562 341.917969 341.300781 340.949219 341.203125 339.976562 C 341.105469 339.007812 340.960938 338.046875 340.769531 337.089844 C 340.578125 336.136719 340.339844 335.191406 340.054688 334.257812 C 339.769531 333.328125 339.441406 332.410156 339.066406 331.511719 C 338.691406 330.613281 338.273438 329.734375 337.8125 328.875 C 337.351562 328.015625 336.851562 327.179688 336.308594 326.371094 C 335.765625 325.5625 335.1875 324.78125 334.566406 324.027344 C 333.949219 323.277344 333.292969 322.554688 332.601562 321.867188 C 331.914062 321.179688 331.191406 320.527344 330.4375 319.910156 C 329.683594 319.292969 328.902344 318.710938 328.089844 318.171875 C 327.28125 317.628906 326.445312 317.132812 325.585938 316.671875 C 324.726562 316.214844 323.847656 315.796875 322.945312 315.425781 C 322.042969 315.054688 321.128906 314.726562 320.195312 314.441406 C 319.261719 314.160156 318.320312 313.925781 317.363281 313.734375 C 316.40625 313.542969 315.445312 313.402344 314.472656 313.304688 C 313.503906 313.210938 312.53125 313.164062 311.558594 313.164062 Z M 311.558594 359.847656 C 311.003906 359.847656 310.449219 359.820312 309.898438 359.765625 C 309.34375 359.710938 308.796875 359.628906 308.25 359.519531 C 307.707031 359.410156 307.167969 359.277344 306.636719 359.117188 C 306.105469 358.953125 305.582031 358.769531 305.070312 358.554688 C 304.558594 358.34375 304.058594 358.105469 303.566406 357.84375 C 303.078125 357.582031 302.601562 357.296875 302.140625 356.988281 C 301.679688 356.679688 301.234375 356.351562 300.804688 355.996094 C 300.375 355.644531 299.964844 355.273438 299.570312 354.878906 C 299.179688 354.488281 298.804688 354.078125 298.453125 353.648438 C 298.101562 353.21875 297.773438 352.773438 297.464844 352.3125 C 297.15625 351.851562 296.871094 351.375 296.609375 350.886719 C 296.347656 350.394531 296.109375 349.894531 295.898438 349.382812 C 295.683594 348.867188 295.496094 348.347656 295.335938 347.816406 C 295.175781 347.285156 295.039062 346.746094 294.933594 346.199219 C 294.824219 345.65625 294.742188 345.109375 294.6875 344.554688 C 294.632812 344.003906 294.605469 343.449219 294.605469 342.894531 C 294.605469 342.339844 294.632812 341.785156 294.6875 341.230469 C 294.742188 340.679688 294.824219 340.132812 294.933594 339.585938 C 295.039062 339.042969 295.175781 338.503906 295.335938 337.972656 C 295.496094 337.441406 295.683594 336.917969 295.898438 336.40625 C 296.109375 335.894531 296.347656 335.390625 296.609375 334.902344 C 296.871094 334.414062 297.15625 333.9375 297.464844 333.476562 C 297.773438 333.015625 298.101562 332.570312 298.453125 332.140625 C 298.804688 331.710938 299.179688 331.300781 299.570312 330.90625 C 299.964844 330.515625 300.375 330.140625 300.804688 329.789062 C 301.234375 329.4375 301.679688 329.105469 302.140625 328.796875 C 302.601562 328.492188 303.078125 328.207031 303.566406 327.945312 C 304.058594 327.683594 304.558594 327.445312 305.070312 327.230469 C 305.582031 327.019531 306.105469 326.832031 306.636719 326.671875 C 307.167969 326.511719 307.707031 326.375 308.25 326.265625 C 308.796875 326.160156 309.34375 326.078125 309.898438 326.023438 C 310.449219 325.96875 311.003906 325.941406 311.558594 325.941406 C 312.113281 325.941406 312.667969 325.96875 313.21875 326.023438 C 313.773438 326.078125 314.320312 326.160156 314.867188 326.265625 C 315.410156 326.375 315.949219 326.511719 316.480469 326.671875 C 317.011719 326.832031 317.53125 327.019531 318.046875 327.230469 C 318.558594 327.445312 319.058594 327.683594 319.550781 327.945312 C 320.039062 328.207031 320.515625 328.488281 320.976562 328.796875 C 321.4375 329.105469 321.882812 329.4375 322.3125 329.789062 C 322.742188 330.140625 323.152344 330.515625 323.546875 330.90625 C 323.9375 331.300781 324.308594 331.710938 324.664062 332.140625 C 325.015625 332.570312 325.34375 333.015625 325.652344 333.476562 C 325.960938 333.9375 326.246094 334.414062 326.507812 334.902344 C 326.769531 335.390625 327.007812 335.894531 327.21875 336.40625 C 327.433594 336.917969 327.617188 337.441406 327.78125 337.972656 C 327.941406 338.503906 328.078125 339.042969 328.183594 339.585938 C 328.292969 340.132812 328.375 340.679688 328.429688 341.230469 C 328.484375 341.785156 328.511719 342.339844 328.511719 342.894531 C 328.503906 343.445312 328.46875 343.992188 328.40625 344.539062 C 328.34375 345.085938 328.253906 345.625 328.140625 346.164062 C 328.027344 346.703125 327.886719 347.234375 327.722656 347.757812 C 327.554688 348.28125 327.363281 348.796875 327.148438 349.300781 C 326.929688 349.808594 326.691406 350.300781 326.425781 350.785156 C 326.164062 351.265625 325.875 351.734375 325.566406 352.1875 C 325.257812 352.640625 324.925781 353.082031 324.574219 353.503906 C 324.21875 353.925781 323.847656 354.328125 323.457031 354.714844 C 323.0625 355.101562 322.65625 355.464844 322.226562 355.8125 C 321.800781 356.15625 321.355469 356.480469 320.898438 356.785156 C 320.4375 357.089844 319.964844 357.367188 319.480469 357.625 C 318.992188 357.882812 318.496094 358.113281 317.988281 358.324219 C 317.476562 358.53125 316.960938 358.714844 316.433594 358.871094 C 315.90625 359.03125 315.375 359.164062 314.835938 359.269531 C 314.292969 359.375 313.75 359.457031 313.203125 359.507812 C 312.65625 359.5625 312.109375 359.589844 311.558594 359.589844 Z M 311.558594 359.847656 " fill-opacity="1" fill-rule="nonzero"/><path fill="#616199" d="M 188.078125 82.769531 C 188.375 83.066406 188.699219 83.332031 189.050781 83.5625 C 189.398438 83.796875 189.769531 83.992188 190.15625 84.152344 C 190.542969 84.3125 190.945312 84.433594 191.355469 84.515625 C 191.769531 84.597656 192.183594 84.636719 192.605469 84.636719 C 193.023438 84.636719 193.441406 84.597656 193.851562 84.515625 C 194.265625 84.433594 194.664062 84.3125 195.054688 84.152344 C 195.441406 83.992188 195.8125 83.796875 196.160156 83.5625 C 196.511719 83.332031 196.832031 83.066406 197.132812 82.769531 L 212.800781 67.101562 L 228.46875 82.769531 C 229.066406 83.382812 229.761719 83.855469 230.554688 84.191406 C 231.34375 84.523438 232.167969 84.691406 233.027344 84.695312 C 233.664062 84.699219 234.289062 84.609375 234.898438 84.429688 C 235.511719 84.246094 236.082031 83.976562 236.613281 83.625 C 237.144531 83.273438 237.613281 82.851562 238.019531 82.359375 C 238.425781 81.867188 238.75 81.328125 238.996094 80.738281 C 239.238281 80.148438 239.390625 79.535156 239.453125 78.902344 C 239.515625 78.265625 239.484375 77.636719 239.359375 77.011719 C 239.234375 76.386719 239.019531 75.792969 238.71875 75.230469 C 238.414062 74.671875 238.039062 74.164062 237.585938 73.714844 L 221.917969 57.792969 L 237.585938 42.378906 C 237.882812 42.082031 238.148438 41.753906 238.382812 41.402344 C 238.613281 41.050781 238.8125 40.679688 238.972656 40.289062 C 239.132812 39.902344 239.25 39.5 239.332031 39.085938 C 239.414062 38.671875 239.453125 38.253906 239.453125 37.832031 C 239.449219 37.410156 239.40625 36.992188 239.324219 36.578125 C 239.238281 36.164062 239.117188 35.761719 238.953125 35.375 C 238.789062 34.984375 238.589844 34.613281 238.355469 34.265625 C 238.121094 33.914062 237.851562 33.589844 237.554688 33.292969 C 237.253906 32.996094 236.929688 32.730469 236.578125 32.5 C 236.226562 32.265625 235.855469 32.070312 235.464844 31.910156 C 235.074219 31.75 234.671875 31.628906 234.257812 31.546875 C 233.84375 31.464844 233.425781 31.425781 233.003906 31.429688 C 232.582031 31.429688 232.164062 31.472656 231.75 31.554688 C 231.335938 31.640625 230.9375 31.761719 230.546875 31.925781 C 230.15625 32.089844 229.789062 32.289062 229.4375 32.523438 C 229.089844 32.757812 228.765625 33.027344 228.46875 33.328125 L 212.800781 48.992188 L 197.132812 33.328125 C 196.832031 33.03125 196.511719 32.765625 196.160156 32.53125 C 195.8125 32.300781 195.441406 32.105469 195.054688 31.945312 C 194.664062 31.785156 194.265625 31.664062 193.851562 31.582031 C 193.441406 31.5 193.023438 31.457031 192.605469 31.457031 C 192.183594 31.457031 191.769531 31.5 191.355469 31.582031 C 190.945312 31.664062 190.542969 31.785156 190.15625 31.945312 C 189.769531 32.105469 189.398438 32.300781 189.050781 32.53125 C 188.699219 32.765625 188.375 33.03125 188.078125 33.328125 C 187.78125 33.625 187.515625 33.949219 187.285156 34.296875 C 187.050781 34.648438 186.855469 35.015625 186.695312 35.40625 C 186.535156 35.792969 186.414062 36.191406 186.332031 36.605469 C 186.25 37.015625 186.210938 37.433594 186.210938 37.851562 C 186.210938 38.273438 186.25 38.6875 186.332031 39.101562 C 186.414062 39.511719 186.535156 39.914062 186.695312 40.300781 C 186.855469 40.691406 187.050781 41.058594 187.285156 41.410156 C 187.515625 41.757812 187.78125 42.082031 188.078125 42.378906 L 203.746094 57.792969 L 188.078125 73.457031 C 187.761719 73.757812 187.480469 74.085938 187.230469 74.445312 C 186.980469 74.800781 186.773438 75.179688 186.601562 75.582031 C 186.429688 75.980469 186.296875 76.394531 186.210938 76.820312 C 186.125 77.246094 186.078125 77.679688 186.078125 78.113281 C 186.078125 78.550781 186.125 78.980469 186.210938 79.40625 C 186.296875 79.832031 186.429688 80.246094 186.601562 80.648438 C 186.773438 81.046875 186.980469 81.425781 187.230469 81.785156 C 187.480469 82.140625 187.761719 82.46875 188.078125 82.769531 Z M 188.078125 82.769531 " fill-opacity="1" fill-rule="nonzero"/></svg>